<svg width="180" height="96" viewBox="0 0 180 96" fill="none" xmlns="http://www.w3.org/2000/svg">
<rect width="180" height="96" rx="16" fill="#070E27"/>
<g clip-path="url(#clip0_478_90)">
<path fill-rule="evenodd" clip-rule="evenodd" d="M116.824 44.414C117.152 44.973 117.259 45.609 117.294 46.324L117.341 47.277V53.941L117.388 54.895C117.484 56.453 118.646 57.605 120.235 57.703L121.195 57.75V47.277L121.242 46.324C121.282 45.617 121.388 44.969 121.721 44.406C122.06 43.8286 122.547 43.3495 123.133 43.0168C123.719 42.6842 124.383 42.5097 125.058 42.5109C125.734 42.5121 126.397 42.689 126.982 43.0237C127.566 43.3585 128.051 43.8393 128.388 44.418C128.716 44.977 128.818 45.625 128.858 46.324L128.905 47.274V53.941L128.953 54.895C129.052 56.461 130.206 57.613 131.799 57.703L132.759 57.75V46.324C132.759 44.3036 131.947 42.3659 130.502 40.9369C129.057 39.508 127.097 38.7048 125.053 38.704C123.958 38.7029 122.877 38.9325 121.88 39.3776C120.882 39.8227 119.993 40.473 119.27 41.285C118.547 40.4733 117.658 39.8232 116.661 39.378C115.664 38.9327 114.582 38.7027 113.488 38.703C111.888 38.703 110.402 39.183 109.172 40.012C108.421 39.184 106.742 38.703 105.777 38.703V57.75L106.742 57.703C108.354 57.598 109.52 56.477 109.583 54.895L109.634 53.941V47.277L109.682 46.324C109.722 45.605 109.824 44.973 110.152 44.41C110.492 43.8329 110.979 43.3539 111.564 43.0209C112.149 42.6878 112.813 42.5124 113.488 42.512C114.164 42.5122 114.828 42.688 115.414 43.0218C115.999 43.3556 116.485 43.8358 116.824 44.414ZM50.8538 57.704L51.818 57.75H66.2711L66.2235 56.8C66.093 55.234 64.971 54.09 63.3815 53.988L62.4173 53.941H53.7464L65.3069 42.511L65.2593 41.562C65.1844 39.98 64.0148 38.837 62.4173 38.75L61.4531 38.707L47 38.703L47.0476 39.656C47.174 41.207 48.3123 42.375 49.8886 42.465L50.8538 42.512H59.5246L47.9642 53.942L48.0118 54.895C48.1069 56.465 49.2532 57.602 50.8538 57.703V57.704ZM101.994 41.491C102.889 42.3753 103.599 43.4252 104.084 44.5808C104.568 45.7363 104.817 46.9748 104.817 48.2255C104.817 49.4763 104.568 50.7148 104.084 51.8703C103.599 53.0258 102.889 54.0757 101.994 54.96C100.186 56.7456 97.7351 57.7486 95.1792 57.7486C92.6233 57.7486 90.172 56.7456 88.364 54.96C84.6012 51.241 84.6012 45.21 88.364 41.491C89.2581 40.607 90.3196 39.9057 91.4879 39.4272C92.6562 38.9486 93.9085 38.7022 95.1732 38.702C96.4399 38.7012 97.6944 38.9471 98.8648 39.4259C100.035 39.9046 101.099 40.6067 101.994 41.492V41.491ZM99.2678 44.188C100.352 45.2601 100.96 46.7135 100.96 48.229C100.96 49.7445 100.352 51.198 99.2678 52.27C98.1831 53.3412 96.7125 53.943 95.1792 53.943C93.6459 53.943 92.1753 53.3412 91.0907 52.27C90.0069 51.198 89.3981 49.7445 89.3981 48.229C89.3981 46.7135 90.0069 45.2601 91.0907 44.188C92.1753 43.1168 93.6459 42.5151 95.1792 42.5151C96.7125 42.5151 98.1831 43.1168 99.2678 44.188ZM74.95 38.702C76.2147 38.7024 77.467 38.9489 78.6354 39.4276C79.8037 39.9063 80.8652 40.6078 81.7592 41.492C85.5229 45.21 85.5229 51.242 81.7592 54.96C79.9512 56.7456 77.4998 57.7486 74.9439 57.7486C72.388 57.7486 69.9367 56.7456 68.1287 54.96C64.3659 51.241 64.3659 45.21 68.1287 41.491C69.0228 40.607 70.0843 39.9057 71.2526 39.4272C72.4209 38.9486 73.6732 38.7022 74.9379 38.702H74.95ZM79.0325 44.186C80.1166 45.2581 80.7256 46.7118 80.7256 48.2275C80.7256 49.7433 80.1166 51.197 79.0325 52.269C77.9478 53.3402 76.4773 53.942 74.9439 53.942C73.4106 53.942 71.94 53.3402 70.8554 52.269C69.7716 51.197 69.1628 49.7435 69.1628 48.228C69.1628 46.7125 69.7716 45.259 70.8554 44.187C71.94 43.1158 73.4106 42.5141 74.9439 42.5141C76.4773 42.5141 77.9478 43.1158 79.0325 44.187V44.186Z" fill="#4E5A85"/>
</g>
<defs>
<clipPath id="clip0_478_90">
<rect width="86" height="20" fill="white" transform="translate(47 38)"/>
</clipPath>
</defs>
</svg>
