<svg width="180" height="96" viewBox="0 0 180 96" fill="none" xmlns="http://www.w3.org/2000/svg">
<rect width="180" height="96" rx="16" fill="#070E27"/>
<g clip-path="url(#clip0_478_88)">
<path d="M69.1134 57.2874L70.595 53.7724C72.196 54.9929 74.3227 55.6276 76.4255 55.6276C77.9787 55.6276 78.9584 55.0173 78.9584 54.0898C78.9345 51.5024 69.663 53.5283 69.5914 47.0354C69.5675 43.7402 72.4349 41.2016 76.4972 41.2016C78.9106 41.2016 81.3241 41.8118 83.0446 43.2031L81.6586 46.7913C80.0815 45.7661 78.1221 45.0339 76.2582 45.0339C74.9918 45.0339 74.1554 45.6441 74.1554 46.4252C74.1793 48.9638 83.5225 47.5724 83.6181 53.7724C83.6181 57.1409 80.8223 59.5087 76.8078 59.5087C73.8687 59.5087 71.1685 58.8008 69.1134 57.2874ZM125.961 52.5031C125.22 53.8213 123.834 54.7244 122.233 54.7244C119.868 54.7244 117.956 52.7716 117.956 50.3551C117.956 47.9386 119.868 45.9858 122.233 45.9858C123.834 45.9858 125.22 46.889 125.961 48.2071L130.047 45.8882C128.518 43.1055 125.579 41.2016 122.233 41.2016C117.287 41.2016 113.272 45.3024 113.272 50.3551C113.272 55.4079 117.287 59.5087 122.233 59.5087C125.603 59.5087 128.518 57.6291 130.047 54.822L125.961 52.5031ZM85.6731 33.6102H90.7867V59.1669H85.6731V33.6102ZM132.054 33.6102V59.1669H137.168V51.5024L143.238 59.1669H149.785L142.067 50.0622L149.211 41.5677H142.951L137.168 48.622V33.6102H132.054ZM105.984 52.552C105.244 53.7968 103.714 54.7244 101.994 54.7244C99.6281 54.7244 97.7165 52.7716 97.7165 50.3551C97.7165 47.9386 99.6281 45.9858 101.994 45.9858C103.714 45.9858 105.244 46.9622 105.984 48.2315V52.552ZM105.984 41.5677V43.6425C105.148 42.2024 103.069 41.2016 100.895 41.2016C96.4022 41.2016 92.8657 45.2535 92.8657 50.3307C92.8657 55.4079 96.4022 59.5087 100.895 59.5087C103.069 59.5087 105.148 58.5079 105.984 57.0677V59.1425H111.098V41.5677H105.984Z" fill="#4E5A85"/>
<path d="M37.4998 52.3804C37.4998 54.1623 36.09 55.6024 34.3456 55.6024C32.6012 55.6024 31.1914 54.1623 31.1914 52.3804C31.1914 50.5985 32.6012 49.1583 34.3456 49.1583H37.4998V52.3804ZM39.0769 52.3804C39.0769 50.5985 40.4867 49.1583 42.2311 49.1583C43.9755 49.1583 45.3853 50.5985 45.3853 52.3804V60.4355C45.3853 62.2174 43.9755 63.6575 42.2311 63.6575C40.4867 63.6575 39.0769 62.2174 39.0769 60.4355V52.3804Z" fill="#4E5A85"/>
<path d="M42.2309 39.4437C40.4865 39.4437 39.0767 38.0036 39.0767 36.2217C39.0767 34.4398 40.4865 32.9996 42.2309 32.9996C43.9753 32.9996 45.3851 34.4398 45.3851 36.2217V39.4437H42.2309ZM42.2309 41.0792C43.9753 41.0792 45.3851 42.5193 45.3851 44.3012C45.3851 46.0831 43.9753 47.5233 42.2309 47.5233H34.3215C32.5771 47.5233 31.1673 46.0831 31.1673 44.3012C31.1673 42.5193 32.5771 41.0792 34.3215 41.0792H42.2309Z" fill="#4E5A85"/>
<path d="M54.8717 44.4479C54.8717 42.666 56.2815 41.2259 58.0259 41.2259C59.7703 41.2259 61.1801 42.666 61.1801 44.4479C61.1801 46.2298 59.7703 47.67 58.0259 47.67H54.8717V44.4479ZM53.2946 44.4479C53.2946 46.2298 51.8847 47.67 50.1403 47.67C48.396 47.67 46.9861 46.2298 46.9861 44.4479V36.3684C46.9861 34.5865 48.396 33.1464 50.1403 33.1464C51.8847 33.1464 53.2946 34.5865 53.2946 36.3684V44.4479Z" fill="#4E5A85"/>
<path d="M50.1403 57.2134C51.8847 57.2134 53.2946 58.6536 53.2946 60.4355C53.2946 62.2174 51.8847 63.6575 50.1403 63.6575C48.396 63.6575 46.9861 62.2174 46.9861 60.4355V57.2134H50.1403ZM50.1403 55.6024C48.396 55.6024 46.9861 54.1623 46.9861 52.3804C46.9861 50.5985 48.396 49.1583 50.1403 49.1583H58.0498C59.7942 49.1583 61.204 50.5985 61.204 52.3804C61.204 54.1623 59.7942 55.6024 58.0498 55.6024H50.1403Z" fill="#4E5A85"/>
</g>
<defs>
<clipPath id="clip0_478_88">
<rect width="119" height="31" fill="white" transform="translate(31 33)"/>
</clipPath>
</defs>
</svg>
