<svg width="180" height="96" viewBox="0 0 180 96" fill="none" xmlns="http://www.w3.org/2000/svg">
<rect width="180" height="96" rx="16" fill="#070E27"/>
<g clip-path="url(#clip0_478_89)">
<path fill-rule="evenodd" clip-rule="evenodd" d="M102.418 59.6789C96.6646 63.8008 88.3259 66 81.1464 66C71.0797 66 62.017 62.3808 55.1607 56.3613C54.622 55.8879 55.1047 55.2428 55.7511 55.6114C63.1504 59.7962 72.2992 62.3137 81.7498 62.3137C88.1234 62.3137 95.1348 61.0319 101.582 58.372C102.556 57.9698 103.37 58.9919 102.418 59.6789Z" fill="#4E5A85"/>
<path fill-rule="evenodd" clip-rule="evenodd" d="M104.809 57.0189C104.077 56.1057 99.9484 56.5874 98.0953 56.8011C97.5308 56.8681 97.4446 56.3906 97.9531 56.0471C101.241 53.7976 106.637 54.4469 107.266 55.2009C107.895 55.9591 107.102 61.2162 104.012 63.7254C103.538 64.1108 103.086 63.9055 103.297 63.3945C103.991 61.7105 105.546 57.9363 104.809 57.0189Z" fill="#4E5A85"/>
<path fill-rule="evenodd" clip-rule="evenodd" d="M98.2246 40.1668V37.9802C98.2246 37.6493 98.4832 37.4272 98.7935 37.4272H108.865C109.188 37.4272 109.446 37.6534 109.446 37.9802V39.8526C109.442 40.1668 109.171 40.5773 108.688 41.2266L103.469 48.4693C105.408 48.4232 107.455 48.7039 109.214 49.6673C109.61 49.8851 109.718 50.2035 109.748 50.5177V52.8509C109.748 53.1693 109.386 53.5421 109.007 53.3494C105.908 51.7701 101.793 51.5984 98.3668 53.3661C98.0178 53.5504 97.6515 53.1818 97.6515 52.8635V50.6475C97.6515 50.2915 97.6558 49.6841 98.0221 49.1437L104.068 40.7156H98.8064C98.4832 40.7156 98.2246 40.4935 98.2246 40.1668Z" fill="#4E5A85"/>
<path fill-rule="evenodd" clip-rule="evenodd" d="M61.4869 53.8102H58.4229C58.1299 53.7892 57.8972 53.5756 57.8756 53.3033V38.0179C57.8756 37.7121 58.1385 37.4692 58.466 37.4692H61.3232C61.6205 37.4817 61.8575 37.7037 61.8791 37.9802V39.9783H61.9351C62.6806 38.0472 64.0812 37.1466 65.9687 37.1466C67.8864 37.1466 69.0844 38.0472 69.9463 39.9783C70.6875 38.0472 72.3725 37.1466 74.1781 37.1466C75.4623 37.1466 76.8672 37.6618 77.7248 38.818C78.6944 40.104 78.4962 41.9723 78.4962 43.6101L78.4918 53.2572C78.4918 53.563 78.229 53.8102 77.9015 53.8102H74.8418C74.5358 53.7892 74.2902 53.5505 74.2902 53.2572V45.1558C74.2902 44.5107 74.3505 42.9022 74.204 42.2906C73.9756 41.2643 73.2904 40.9753 72.4027 40.9753C71.6614 40.9753 70.8857 41.457 70.5712 42.2278C70.2566 42.9985 70.2867 44.2887 70.2867 45.1558V53.2572C70.2867 53.563 70.0239 53.8102 69.6963 53.8102H66.6367C66.3264 53.7892 66.0851 53.5505 66.0851 53.2572L66.0808 45.1558C66.0808 43.451 66.3695 40.9418 64.1932 40.9418C61.9911 40.9418 62.0773 43.3881 62.0773 45.1558V53.2572C62.0773 53.563 61.8144 53.8102 61.4869 53.8102" fill="#4E5A85"/>
<path fill-rule="evenodd" clip-rule="evenodd" d="M118.117 37.1466C122.663 37.1466 125.124 40.9418 125.124 45.7674C125.124 50.4297 122.405 54.1285 118.117 54.1285C113.652 54.1285 111.222 50.3334 111.222 45.6041C111.222 40.8454 113.682 37.1466 118.117 37.1466ZM118.143 40.2674C115.885 40.2674 115.742 43.2583 115.742 45.1223C115.742 46.9906 115.712 50.9785 118.117 50.9785C120.491 50.9785 120.603 47.7614 120.603 45.8009C120.603 44.5108 120.547 42.9692 120.147 41.7461C119.802 40.6821 119.117 40.2674 118.143 40.2674Z" fill="#4E5A85"/>
<path fill-rule="evenodd" clip-rule="evenodd" d="M131.019 53.8102H127.968C127.662 53.7892 127.417 53.5505 127.417 53.2572L127.412 37.9676C127.438 37.687 127.692 37.4692 128.003 37.4692H130.843C131.11 37.4817 131.329 37.6577 131.39 37.8964V40.2338H131.446C132.303 38.1436 133.506 37.1466 135.622 37.1466C136.996 37.1466 138.337 37.6283 139.198 38.9478C140 40.171 140 42.2278 140 43.7065V53.3285C139.966 53.5965 139.711 53.8102 139.41 53.8102H136.337C136.057 53.7892 135.824 53.5882 135.794 53.3285V45.026C135.794 43.3546 135.992 40.9083 133.876 40.9083C133.131 40.9083 132.446 41.3942 132.105 42.1314C131.674 43.0656 131.618 43.9955 131.618 45.026V53.2572C131.614 53.563 131.347 53.8102 131.019 53.8102" fill="#4E5A85"/>
<path fill-rule="evenodd" clip-rule="evenodd" d="M90.1962 46.5089C90.1962 47.6692 90.2263 48.6369 89.623 49.6673C89.1361 50.5051 88.3604 51.0204 87.5028 51.0204C86.3263 51.0204 85.6368 50.1491 85.6368 48.8631C85.6368 46.3246 87.9768 45.8638 90.1962 45.8638V46.5089ZM93.286 53.7683C93.0835 53.9442 92.7904 53.9568 92.562 53.8395C91.545 53.0185 91.3597 52.6373 90.8038 51.854C89.1231 53.5212 87.9294 54.0196 85.7532 54.0196C83.1718 54.0196 81.168 52.4739 81.168 49.3783C81.168 46.9613 82.5125 45.315 84.4345 44.5108C86.0979 43.7986 88.4207 43.673 90.1962 43.4761V43.0907C90.1962 42.3828 90.2522 41.545 89.8213 40.9334C89.4506 40.3847 88.7353 40.1585 88.1018 40.1585C86.934 40.1585 85.8954 40.7407 85.6411 41.9471C85.5894 42.2152 85.3869 42.4791 85.1068 42.4917L82.1376 42.1817C81.8876 42.1273 81.6075 41.9304 81.6808 41.5576C82.3617 38.0556 85.6196 37 88.5327 37C90.0238 37 91.9717 37.3854 93.1481 38.4829C94.6392 39.8359 94.497 41.6413 94.497 43.6059V48.2473C94.497 49.6422 95.0917 50.2538 95.6519 51.0078C95.8458 51.2759 95.8889 51.5984 95.6389 51.7995C95.0141 52.3064 93.9023 53.2489 93.2903 53.7767L93.286 53.7683" fill="#4E5A85"/>
<path fill-rule="evenodd" clip-rule="evenodd" d="M50.0282 46.5091C50.0282 47.6695 50.0584 48.6371 49.4551 49.6676C48.9681 50.5054 48.1967 51.0206 47.3348 51.0206C46.1584 51.0206 45.4732 50.1493 45.4732 48.8633C45.4732 46.3248 47.8132 45.864 50.0282 45.864V46.5091ZM53.1181 53.7685C52.9155 53.9445 52.6225 53.957 52.3941 53.8398C51.3771 53.0187 51.1961 52.6375 50.6358 51.8542C48.9552 53.5214 47.7658 54.0199 45.5852 54.0199C43.0082 54.0199 41 52.4742 41 49.3785C41 46.9615 42.3488 45.3153 44.2665 44.511C45.93 43.7989 48.2527 43.6732 50.0282 43.4763V43.091C50.0282 42.383 50.0842 41.5452 49.6576 40.9337C49.2827 40.3849 48.5673 40.1587 47.9381 40.1587C46.7703 40.1587 45.7274 40.741 45.4732 41.9474C45.4214 42.2155 45.2189 42.4794 44.9431 42.4919L41.9696 42.182C41.7197 42.1275 41.4439 41.9306 41.5128 41.5578C42.198 38.0559 45.4516 37.0002 48.3648 37.0002C49.8558 37.0002 51.8037 37.3856 52.9801 38.4831C54.4712 39.8362 54.329 41.6416 54.329 43.6062V48.2475C54.329 49.6424 54.9237 50.254 55.4839 51.008C55.6821 51.2761 55.7252 51.5987 55.4753 51.7997C54.8504 52.3066 53.7386 53.2491 53.1267 53.7769L53.1181 53.7685" fill="#4E5A85"/>
</g>
<defs>
<clipPath id="clip0_478_89">
<rect width="99" height="29" fill="white" transform="translate(41 37)"/>
</clipPath>
</defs>
</svg>
