<svg width="108" height="36" viewBox="0 0 108 36" fill="none" xmlns="http://www.w3.org/2000/svg">
<path d="M34.16 26V8.48H37.568V26H34.16ZM37.088 18.704V15.824L44.096 15.8V18.68L37.088 18.704ZM37.088 11.36V8.48H44.432V11.36H37.088ZM52.805 26.456C51.653 26.456 50.637 26.272 49.757 25.904C48.877 25.536 48.133 25.04 47.525 24.416C46.917 23.776 46.453 23.056 46.133 22.256C45.829 21.456 45.677 20.624 45.677 19.76V19.256C45.677 18.36 45.837 17.512 46.157 16.712C46.493 15.896 46.965 15.176 47.573 14.552C48.197 13.912 48.949 13.416 49.829 13.064C50.709 12.696 51.701 12.512 52.805 12.512C53.909 12.512 54.901 12.696 55.781 13.064C56.661 13.416 57.405 13.912 58.013 14.552C58.637 15.176 59.109 15.896 59.429 16.712C59.749 17.512 59.909 18.36 59.909 19.256V19.76C59.909 20.624 59.749 21.456 59.429 22.256C59.125 23.056 58.669 23.776 58.061 24.416C57.453 25.04 56.709 25.536 55.829 25.904C54.949 26.272 53.941 26.456 52.805 26.456ZM52.805 23.6C53.621 23.6 54.309 23.424 54.869 23.072C55.429 22.704 55.853 22.216 56.141 21.608C56.429 20.984 56.573 20.28 56.573 19.496C56.573 18.696 56.421 17.992 56.117 17.384C55.829 16.76 55.397 16.272 54.821 15.92C54.261 15.552 53.589 15.368 52.805 15.368C52.021 15.368 51.341 15.552 50.765 15.92C50.205 16.272 49.773 16.76 49.469 17.384C49.165 17.992 49.013 18.696 49.013 19.496C49.013 20.28 49.157 20.984 49.445 21.608C49.749 22.216 50.181 22.704 50.741 23.072C51.301 23.424 51.989 23.6 52.805 23.6ZM60.5574 26L64.8054 19.04L64.7334 19.592L60.7254 12.968H64.3494L66.9654 17.552H67.3254L69.7974 12.968H73.2054L69.4134 19.568L69.4854 19.088L73.9734 26H70.3494L67.2534 21.08H66.8934L63.9654 26H60.5574ZM83.3129 26V22.136H82.7609V17.84C82.7609 17.088 82.5769 16.528 82.2089 16.16C81.8409 15.792 81.2729 15.608 80.5049 15.608C80.1049 15.608 79.6249 15.616 79.0649 15.632C78.5049 15.648 77.9369 15.672 77.3609 15.704C76.8009 15.72 76.2969 15.744 75.8489 15.776V12.944C76.2169 12.912 76.6329 12.88 77.0969 12.848C77.5609 12.816 78.0329 12.8 78.5129 12.8C79.0089 12.784 79.4729 12.776 79.9049 12.776C81.2489 12.776 82.3609 12.952 83.2409 13.304C84.1369 13.656 84.8089 14.208 85.2569 14.96C85.7209 15.712 85.9529 16.696 85.9529 17.912V26H83.3129ZM79.1129 26.336C78.1689 26.336 77.3369 26.168 76.6169 25.832C75.9129 25.496 75.3609 25.016 74.9609 24.392C74.5769 23.768 74.3849 23.016 74.3849 22.136C74.3849 21.176 74.6169 20.392 75.0809 19.784C75.5609 19.176 76.2249 18.72 77.0729 18.416C77.9369 18.112 78.9449 17.96 80.0969 17.96H83.1209V19.952H80.0489C79.2809 19.952 78.6889 20.144 78.2729 20.528C77.8729 20.896 77.6729 21.376 77.6729 21.968C77.6729 22.56 77.8729 23.04 78.2729 23.408C78.6889 23.776 79.2809 23.96 80.0489 23.96C80.5129 23.96 80.9369 23.88 81.3209 23.72C81.7209 23.544 82.0489 23.256 82.3049 22.856C82.5769 22.44 82.7289 21.88 82.7609 21.176L83.5769 22.112C83.4969 23.024 83.2729 23.792 82.9049 24.416C82.5529 25.04 82.0569 25.52 81.4169 25.856C80.7929 26.176 80.0249 26.336 79.1129 26.336ZM89.0463 26V12.968H91.6863V18.488H91.6143C91.6143 16.616 92.0143 15.2 92.8143 14.24C93.6143 13.28 94.7903 12.8 96.3423 12.8H96.8223V15.704H95.9103C94.7903 15.704 93.9183 16.008 93.2943 16.616C92.6863 17.208 92.3823 18.072 92.3823 19.208V26H89.0463ZM104.519 26.168C103.319 26.168 102.327 26.016 101.543 25.712C100.775 25.392 100.199 24.864 99.8154 24.128C99.4314 23.376 99.2394 22.368 99.2394 21.104L99.2634 9.296H102.383L102.359 21.32C102.359 21.96 102.527 22.456 102.863 22.808C103.215 23.144 103.711 23.312 104.351 23.312H106.391V26.168H104.519ZM97.1754 15.416V12.968H106.391V15.416H97.1754Z" fill="white"/>
<path fill-rule="evenodd" clip-rule="evenodd" d="M22.201 5.77472C22.201 3.82963 23.7805 2.25015 25.7256 2.25015C27.6707 2.25015 29.2502 3.82963 29.2502 5.77472C29.2502 7.71982 27.6707 9.2993 25.7256 9.2993C23.7805 9.2993 22.201 7.71982 22.201 5.77472ZM16.5702 20.9104L20.7969 15.4568L20.7384 15.4861C20.9724 15.1643 21.0162 14.7548 20.8554 14.3892C20.6959 14.0236 20.3435 13.7749 19.9647 13.7457C19.5684 13.7018 19.1749 13.8773 18.9395 14.1991L15.4017 18.7766L11.3491 15.5883C11.1004 15.3983 10.8079 15.3237 10.5154 15.3544C10.2244 15.3983 9.96115 15.5577 9.78419 15.7916L5.45662 21.4237L5.36741 21.5553C5.11878 22.0219 5.23578 22.6215 5.67453 22.9447C5.87928 23.0763 6.09866 23.1641 6.34729 23.1641C6.68513 23.1787 7.00542 23.0017 7.21017 22.7253L10.8811 18L15.0492 21.1312L15.1809 21.2175C15.6489 21.4661 16.2339 21.3506 16.5702 20.9104ZM19.6707 4.85379C19.6122 5.21941 19.583 5.58502 19.583 5.95065C19.583 9.24123 22.2447 11.9015 25.5207 11.9015C25.8864 11.9015 26.2374 11.8591 26.6031 11.8006V23.6013C26.6031 28.5606 23.678 31.5001 18.7055 31.5001H7.89901C2.92502 31.5001 0 28.5606 0 23.6013V12.7804C0 7.80799 2.92502 4.85379 7.89901 4.85379H19.6707Z" fill="#0059F7"/>
</svg>
