<svg width="180" height="96" viewBox="0 0 180 96" fill="none" xmlns="http://www.w3.org/2000/svg">
<rect width="180" height="96" rx="16" fill="#070E27"/>
<path d="M55.9253 59.3886C54.5112 59.6329 53.0723 59.7062 51.5838 59.9013L47.0437 46.8155V60.4629C45.6297 60.6094 44.3397 60.8047 43 61V36H46.771L51.9311 50.1848V36H55.9253V59.3886ZM63.74 45.1553C65.2783 45.1553 67.6351 45.082 69.0491 45.082V48.9882C67.2876 48.9882 65.2286 48.9882 63.74 49.0614V54.8721C66.0721 54.7257 68.4041 54.5302 70.7608 54.4569V58.2164L59.7706 59.0711V36H70.7608V39.9063H63.74V45.1553ZM85.522 39.9063H81.4038V57.8751C80.0641 57.8751 78.7244 57.8751 77.4346 57.9238V39.9063H73.3164V36H85.5221L85.522 39.9063ZM91.9722 44.8868H97.4053V48.793H91.9722V57.6554H88.0769V36H99.1667V39.9063H91.9722V44.8868ZM105.617 54.2373C107.875 54.286 110.157 54.4572 112.365 54.579V58.4365C108.817 58.2166 105.27 57.9972 101.648 57.9238V36H105.617V54.2373ZM115.714 58.7051C116.979 58.7784 118.319 58.8517 119.609 58.998V36H115.714V58.7051ZM137 36L131.964 47.8897L137 61C135.511 60.8047 134.023 60.5361 132.534 60.2919L129.681 53.0655L126.779 59.7062C125.34 59.4618 123.951 59.3886 122.512 59.1933L127.622 47.7431L123.008 36H127.275L129.88 42.5674L132.658 36H137V36Z" fill="#4E5A85"/>
</svg>
