<svg width="180" height="96" viewBox="0 0 180 96" fill="none" xmlns="http://www.w3.org/2000/svg">
<rect width="180" height="96" rx="16" fill="#070E27"/>
<path d="M81.3851 48.4617C81.3851 53.4587 77.3818 57.1409 72.4687 57.1409C67.5557 57.1409 63.5524 53.4587 63.5524 48.4617C63.5524 43.4295 67.5557 39.7826 72.4687 39.7826C77.3818 39.7826 81.3851 43.4295 81.3851 48.4617ZM77.4819 48.4617C77.4819 45.3391 75.1617 43.2026 72.4687 43.2026C69.7758 43.2026 67.4555 45.3391 67.4555 48.4617C67.4555 51.553 69.7758 53.7209 72.4687 53.7209C75.1617 53.7209 77.4819 51.5491 77.4819 48.4617Z" fill="#4E5A85"/>
<path d="M100.62 48.4617C100.62 53.4587 96.6171 57.1409 91.704 57.1409C86.791 57.1409 82.7877 53.4587 82.7877 48.4617C82.7877 43.4335 86.791 39.7826 91.704 39.7826C96.6171 39.7826 100.62 43.4295 100.62 48.4617ZM96.7172 48.4617C96.7172 45.3391 94.397 43.2026 91.704 43.2026C89.0111 43.2026 86.6908 45.3391 86.6908 48.4617C86.6908 51.553 89.0111 53.7209 91.704 53.7209C94.397 53.7209 96.7172 51.5491 96.7172 48.4617Z" fill="#4E5A85"/>
<path d="M119.054 40.3069V55.8887C119.054 62.2982 115.183 64.9161 110.607 64.9161C106.299 64.9161 103.706 62.1026 102.728 59.8017L106.127 58.4204C106.732 59.833 108.214 61.5 110.603 61.5C113.532 61.5 115.347 59.7352 115.347 56.413V55.1648H115.211C114.338 56.2174 112.654 57.1369 110.531 57.1369C106.086 57.1369 102.015 53.3569 102.015 48.493C102.015 43.5939 106.086 39.7826 110.531 39.7826C112.65 39.7826 114.334 40.7022 115.211 41.7235H115.347V40.3109H119.054V40.3069ZM115.624 48.493C115.624 45.4369 113.536 43.2026 110.879 43.2026C108.186 43.2026 105.93 45.4369 105.93 48.493C105.93 51.5178 108.186 53.7209 110.879 53.7209C113.536 53.7209 115.624 51.5178 115.624 48.493Z" fill="#4E5A85"/>
<path d="M125.165 31.1739V56.6087H121.358V31.1739H125.165Z" fill="#4E5A85"/>
<path d="M140.001 51.3183L143.03 53.2904C142.052 54.703 139.696 57.1369 135.625 57.1369C130.575 57.1369 126.804 53.3256 126.804 48.4578C126.804 43.2965 130.607 39.7787 135.188 39.7787C139.8 39.7787 142.056 43.363 142.794 45.3L143.199 46.2861L131.317 51.0913C132.226 52.8326 133.641 53.7209 135.625 53.7209C137.612 53.7209 138.991 52.7661 140.001 51.3183ZM130.676 48.1956L138.618 44.9752C138.181 43.8913 136.867 43.1361 135.32 43.1361C133.336 43.1361 130.575 44.8461 130.676 48.1956Z" fill="#4E5A85"/>
<path d="M49.142 46.2039V42.5217H61.8493C61.9735 43.1635 62.0376 43.9226 62.0376 44.7443C62.0376 47.5069 61.2642 50.923 58.7716 53.3569C56.3472 55.8222 53.2495 57.1369 49.146 57.1369C41.54 57.1369 35.1443 51.0874 35.1443 43.6604C35.1443 36.2335 41.54 30.1839 49.146 30.1839C53.3537 30.1839 56.3512 31.7961 58.6033 33.8974L55.9424 36.4956C54.3275 35.0165 52.1395 33.8661 49.142 33.8661C43.5878 33.8661 39.2438 38.2369 39.2438 43.6604C39.2438 49.0839 43.5878 53.4548 49.142 53.4548C52.7446 53.4548 54.7963 52.0422 56.1107 50.7587C57.1767 49.7178 57.878 48.2309 58.1545 46.2L49.142 46.2039Z" fill="#4E5A85"/>
</svg>
